# xmcd
#
# Track frame offsets:
#	150
#	21206
#	32524
#	51351
#	74229
#	93096
#	105802
#	130551
#	147745
#	161947
#	176280
#	189820
#	204673
#	226300
#	242269
#
# Disc length: 3413 seconds
#
# Revision: 0
# Processed by: cddbd v1.5.2PL0 Copyright (c) Steve Scherf et al.
# Submitted via: audiograbber 1.83.01
#
DISCID=c20d530f
DTITLE=RICHARD CLAYDERMAN -  THE BEST OF - CD2
DYEAR=2016
DGENRE=Ballad
TTITLE0=MOONLIGHT SONATA
TTITLE1=WOMAN IN LOVE
TTITLE2=I WILL ALWAYS LOVE YOU
TTITLE3=RHAPSODY IN BLUE
TTITLE4=LADY IN RED - TAKE MY BREATH AWAY
TTITLE5=AUTUMIN LEAVES
TTITLE6=MEMORY
TTITLE7=HOW DEEP IS YOUR LOVE
TTITLE8=BRIDGE OVER TROUBLED WATER
TTITLE9=HELLO
TTITLE10=UP WHERE WE BELONG
TTITLE11=HUNGARIAN SONATA
TTITLE12=THE PHANTOM OF OPERA
TTITLE13=THE SOUND OF SILENCE
TTITLE14=LE CYGNE
EXTD=
EXTT0=
EXTT1=
EXTT2=
EXTT3=
EXTT4=
EXTT5=
EXTT6=
EXTT7=
EXTT8=
EXTT9=
EXTT10=
EXTT11=
EXTT12=
EXTT13=
EXTT14=
PLAYORDER=
